<?xml version="1.0" ?><svg id="Layer_30" style="enable-background:new 0 0 496.021 496;" version="1.1" viewBox="0 0 496.021 496" xml:space="preserve" xmlns="http://www.w3.org/2000/svg" xmlns:xlink="http://www.w3.org/1999/xlink"><g><g><g><path d="M484.936,449.65c1.99,3.73,3.08,7.93,3.08,12.29c0,14.39-11.67,26.06-26.06,26.06H34.076     c-7.2,0-13.71-2.92-18.43-7.63c-4.71-4.72-7.63-11.23-7.63-18.43c0-8.71,4.35-16.84,11.6-21.68l0.8-0.52     c7.25-4.84,11.6-12.97,11.6-21.68V248l31.74,18.81L86.016,280l54-32l53.99,32l1.45-0.86l52.55-31.14l52.57,31.15l1.43,0.85     l12.98-7.69l41.02-24.31l29.98,17.77l24.02,14.23l54.01-32v170.06c0,8.71,4.35,16.84,11.6,21.68l0.8,0.53     C480.036,442.68,482.936,445.92,484.936,449.65z" style="fill:#CF9E76;"/></g><g><polygon points="413.466,193.78 385.986,265.77 356.006,248 314.986,272.31 353.666,170.96    " style="fill:#CCD1D9;"/></g><g><path d="M488.016,197.18c0,2.08-0.38,4.17-1.13,6.15c-3.4,8.9-13.37,13.37-22.28,9.97l-51.14-19.52     l-59.8-22.82l-47.88-18.28c-1.36-2.26-2.84-4.43-4.46-6.51l8.14-30.51l105.1-52.18c2.55-1.26,5.34-1.9,8.13-1.9     c2.2,0,4.41,0.4,6.51,1.2c4.77,1.82,8.55,5.55,10.45,10.28l47.12,117.71C487.606,192.82,488.016,195,488.016,197.18z" style="fill:#E6E9ED;"/></g><g><path d="M216.016,47.33v61.89l-12.96-48.6c-2.27-8.54-11.04-13.62-19.58-11.34     c-7.16,1.91-11.88,8.38-11.88,15.45c0,1.37,0.17,2.75,0.54,4.13l21.13,79.24c-10.1,14.05-14.88,32.03-11.66,50.74l2.91,16.85     c-7.74,3.74-16.5,5.44-25.43,4.58L140.016,248l-54,32l-22.26-13.19l13.92-51.83c-2.63-0.26-5.27-0.72-7.9-1.43     c-25.61-6.87-40.79-33.2-33.92-58.8c0.06-0.22,0.13-0.43,0.19-0.65c-20.94-9.56-32.54-33.11-26.38-56.08     c4.81-17.91,19.13-30.71,36.07-34.44c-0.09-4.42,0.42-8.94,1.63-13.43c6.87-25.6,33.2-40.78,58.8-33.91     c6.96,1.87,13.14,5.18,18.33,9.52c11.58-14.25,30.83-21.17,49.71-16.11c18.87,5.07,38.73,19.55,41.62,37.68H216.016z" style="fill:#B4DD7F;"/></g><g><path d="M316.626,26.7c8.54,2.28,13.61,11.04,11.34,19.58l-18.5,69.38l-8.14,30.51     c-5.72-7.4-12.97-13.61-21.31-18.12V101.9l17.03-63.86c1.9-7.16,8.37-11.89,15.44-11.89     C313.856,26.15,315.246,26.33,316.626,26.7z" style="fill:#A0D468;"/></g><g><path d="M280.016,101.9v26.15l-32-8.05V56c0-4.42,1.79-8.42,4.68-11.32c2.9-2.89,6.9-4.68,11.32-4.68     c8.84,0,16,7.16,16,16V101.9z" style="fill:#A0D468;"/></g><g><path d="M248.016,56v64c-11.66,0-22.53,2.93-32,8.05v-18.83V47.33V24c0-4.42,1.79-8.42,4.68-11.32     c2.9-2.89,6.9-4.68,11.32-4.68c8.84,0,16,7.16,16,16V56z" style="fill:#A0D468;"/></g><g><path d="M216.016,109.22v18.83c-9.06,4.9-16.82,11.8-22.75,20.05l-21.13-79.24     c-0.37-1.38-0.54-2.76-0.54-4.13c0-7.07,4.72-13.54,11.88-15.45c8.54-2.28,17.31,2.8,19.58,11.34L216.016,109.22z" style="fill:#A0D468;"/></g><g><path d="M301.326,146.17c1.62,2.08,3.1,4.25,4.46,6.51c6.14,10.18,9.64,22.05,9.64,34.57     c0,3.81-0.33,7.69-1,11.59l-13.85,80.31L248.006,248l-52.55,31.14l-10.94-63.45l-2.91-16.85c-3.22-18.71,1.56-36.69,11.66-50.74     c5.93-8.25,13.69-15.15,22.75-20.05c9.47-5.12,20.34-8.05,32-8.05l32,8.05C288.356,132.56,295.606,138.77,301.326,146.17z" style="fill:#FF826E;"/></g></g><g><path d="M480.853,433.61l-0.797-0.532c-5.034-3.355-8.04-8.972-8.04-15.022V233.961l-62.006,36.74l-14.145-8.382l22.219-58.216    l43.673,16.668c2.953,1.127,5.988,1.661,8.977,1.661c10.173,0,19.784-6.194,23.623-16.251c2.27-5.949,2.216-12.48-0.15-18.391    L447.083,70.086c-2.717-6.786-8.191-12.173-15.021-14.78c-6.832-2.607-14.504-2.237-21.05,1.013l-89.258,44.308l13.941-52.284    c1.651-6.194,0.791-12.661-2.421-18.208s-8.393-9.513-14.586-11.164c-6.193-1.65-12.659-0.792-18.209,2.42    c-5.548,3.212-9.513,8.393-11.164,14.587l-2.986,11.2C282.805,38.298,274.135,32,264.016,32c-2.804,0-5.496,0.488-8,1.376V24    c0-13.233-10.767-24-24-24c-11.702,0-21.47,8.422-23.574,19.521c-9.21-8.544-21.152-14.64-32.165-17.596    c-18.83-5.054-38.8,0.121-52.8,13.221c-4.694-2.951-9.794-5.173-15.234-6.633c-29.829-8.005-60.599,9.746-68.604,39.568    c-0.824,3.073-1.385,6.209-1.676,9.376C20.366,63.437,6.834,77.723,1.942,95.944c-6.545,24.382,3.868,49.606,24.979,62.369    c-4.512,27.969,12.833,55.462,40.776,62.963l-8.932,33.277l-34.749-20.594v184.096c0,6.051-3.006,11.667-8.042,15.024    l-0.793,0.529c-9.496,6.33-15.165,16.923-15.165,28.336C0.016,480.723,15.294,496,34.072,496h427.889    c18.778,0,34.056-15.277,34.056-34.056C496.016,450.531,490.347,439.938,480.853,433.61z M381.898,254.043l-25.892-15.342    l-25.365,15.032l27.652-72.45l44.844,17.115L381.898,254.043z M208.016,123.479c-3.834,2.402-7.463,5.156-10.838,8.243    L179.869,66.8c-0.551-2.064-0.265-4.22,0.807-6.07c1.07-1.849,2.797-3.171,4.861-3.721c2.064-0.552,4.22-0.264,6.07,0.807    c1.85,1.071,3.171,2.797,3.722,4.862l12.688,47.585V123.479z M184.956,265.335l-33.501-19.854l11.689-16.998    c0.167,0.001,0.334,0.002,0.502,0.002c4.942,0,9.854-0.676,14.618-1.971L184.956,265.335z M201.366,266.341l-11.873-68.864    c-2.983-17.3,1.793-34.923,13.103-48.35C213.905,135.701,230.461,128,248.016,128s34.111,7.701,45.421,21.128    c11.31,13.427,16.086,31.049,13.103,48.35l-11.875,68.873l-46.657-27.649L201.366,266.341z M320.572,166.886l22.771,8.691    l-30.626,80.242l9.59-55.623C324.247,188.943,323.595,177.583,320.572,166.886z M418.125,70.651    c2.561-1.271,5.561-1.417,8.231-0.396c2.67,1.019,4.811,3.125,5.873,5.779l47.124,117.706c0.867,2.166,0.887,4.56,0.056,6.739    c-1.82,4.767-7.181,7.167-11.946,5.346l-156.337-59.669c-0.353-0.54-0.714-1.076-1.082-1.608l6.221-23.331L418.125,70.651z     M304.775,40.099c0.55-2.064,1.872-3.791,3.721-4.862c1.851-1.07,4.006-1.358,6.07-0.807c2.064,0.55,3.791,1.872,4.861,3.721    c1.071,1.849,1.357,4.005,0.808,6.069l-22.957,86.099c-2.921-2.525-6.018-4.809-9.262-6.841V102.95L304.775,40.099z M264.016,48    c4.411,0,8,3.589,8,8v59.91c-5.157-1.729-10.518-2.903-16-3.485V56C256.016,51.589,259.605,48,264.016,48z M232.016,16    c4.411,0,8,3.589,8,8v32v56.426c-5.482,0.581-10.843,1.756-16,3.485V24C224.016,19.589,227.605,16,232.016,16z M78.439,207.013    c-2.234-0.215-4.453-0.615-6.593-1.189c-21.302-5.718-33.98-27.7-28.271-48.974l2.048-7.172l-6.254-2.854    c-17.818-8.132-27.06-27.786-21.975-46.731c3.884-14.471,15.403-25.467,30.063-28.698l6.407-1.412l-0.131-6.559    c-0.075-3.79,0.382-7.556,1.358-11.194c5.718-21.302,27.699-33.98,49.002-28.263c5.654,1.518,10.791,4.186,15.269,7.93    l6.224,5.204l5.116-6.295c9.949-12.241,26.217-17.51,41.426-13.426c15.609,4.19,33.459,16.552,35.795,31.208l0.093-0.015v3.556    c-5.423-8.767-16.146-13.368-26.601-10.58c-12.787,3.409-20.417,16.586-17.007,29.373l20.187,75.711    c-10.154,15.776-14.103,34.818-10.871,53.563l1.803,10.458c-5.056,1.583-10.382,2.159-15.677,1.649l-4.689-0.451l-20.742,30.164    l-48.406,28.685l-12.955-7.677l14.792-55.104L78.439,207.013z M461.961,480H34.072c-9.956,0-18.056-8.1-18.056-18.056    c0-6.051,3.006-11.667,8.042-15.024l0.793-0.529c9.496-6.33,15.165-16.923,15.165-28.336V262.041l45.997,27.259l54-32l53.996,32    l53.998-32l53.999,32l53.999-32l54.005,32l46.006-27.26v156.017c0,11.413,5.669,22.006,15.163,28.334l0.797,0.532    c5.034,3.355,8.04,8.972,8.04,15.022C480.016,471.9,471.917,480,461.961,480z"/><path d="M320.016,384h16c4.411,0,8,3.589,8,8h16c0-13.233-10.767-24-24-24v-16h-16v16c-13.233,0-24,10.767-24,24s10.767,24,24,24    h16c4.411,0,8,3.589,8,8s-3.589,8-8,8h-16c-4.411,0-8-3.589-8-8h-16c0,13.233,10.767,24,24,24v16h16v-16c13.233,0,24-10.767,24-24    s-10.767-24-24-24h-16c-4.411,0-8-3.589-8-8S315.605,384,320.016,384z"/><rect height="16" width="16" x="376.016" y="448"/><rect height="16" width="32" x="408.016" y="448"/><rect height="16" width="64" x="376.016" y="416"/><rect height="16" width="64" x="376.016" y="384"/><rect height="16" width="64" x="376.016" y="352"/><rect height="16" width="64" x="216.016" y="208"/><rect height="16" width="64" x="216.016" y="176"/><rect height="16" width="32" x="232.016" y="144"/><path d="M414.945,100.151c4.128,1.575,8.751-0.494,10.327-4.622c1.575-4.128-0.494-8.751-4.622-10.327    c-4.128-1.575-8.751,0.494-10.327,4.621S410.817,98.575,414.945,100.151z"/><path d="M354.753,145.681c4.128,1.575,8.751-0.494,10.327-4.622c1.575-4.128-0.494-8.751-4.622-10.327s-8.751,0.494-10.327,4.621    C348.556,139.482,350.626,144.105,354.753,145.681z"/><path d="M423.104,146.079c-4.128-1.575-8.751,0.494-10.327,4.621s0.494,8.751,4.622,10.327c4.128,1.575,8.751-0.494,10.327-4.622    C429.301,152.278,427.232,147.655,423.104,146.079z"/><path d="M385.734,131.816c4.128,1.575,8.751-0.494,10.327-4.621s-0.494-8.751-4.622-10.327c-4.128-1.575-8.751,0.494-10.327,4.622    C379.537,125.617,381.606,130.241,385.734,131.816z"/><path d="M444.443,179.912c4.128,1.575,8.751-0.494,10.327-4.621c1.575-4.128-0.494-8.751-4.622-10.327    c-4.128-1.576-8.751,0.494-10.327,4.621C438.246,173.713,440.315,178.337,444.443,179.912z"/><path d="M104.016,96h16c0-17.645-14.355-32-32-32C72.842,64,60.1,74.618,56.83,88.813C42.634,92.084,32.016,104.826,32.016,120h16    c0-8.822,7.178-16,16-16h8v-8c0-8.822,7.178-16,16-16S104.016,87.178,104.016,96z"/><path d="M104.016,128c8.822,0,16,7.178,16,16v8h8c8.822,0,16,7.178,16,16s-7.178,16-16,16v16c17.645,0,32-14.355,32-32    c0-15.174-10.618-27.916-24.813-31.187C131.932,122.618,119.19,112,104.016,112V128z"/><rect height="16" width="224" x="56.016" y="416"/></g></g></svg>